<svg width="202" height="100" viewBox="0 0 202 100" fill="none" xmlns="http://www.w3.org/2000/svg">
<path d="M45.4545 84.3625C46.1978 86.0206 46.2264 87.6501 45.5403 89.251C44.8541 90.7947 43.7678 92.2241 42.2813 93.5392C40.7947 94.8542 39.0794 95.9977 37.1355 96.9697C35.2487 97.9417 33.4476 98.6278 31.7324 99.028C29.8456 99.4282 27.8444 99.5998 25.729 99.5426C23.6706 99.5426 21.5837 99.2853 19.4682 98.7707C17.4099 98.3133 15.3802 97.6272 13.3791 96.7124C11.4351 95.7404 9.63406 94.5683 7.97598 93.1961C5.97484 91.538 4.40251 89.5655 3.259 87.2785C2.17267 84.9343 1.37221 82.4471 0.857632 79.8171C0.343053 77.187 0.0571756 74.5569 0 71.9268C0 69.2396 0.0857633 66.7239 0.25729 64.3797C0.428816 62.2642 0.857632 60.0629 1.54374 57.7759C2.22984 55.4889 3.17324 53.2591 4.37392 51.0864C5.63178 48.8565 7.11835 46.7982 8.83361 44.9114C10.606 43.0247 12.6644 41.4237 15.0086 40.1087C16.781 39.0795 18.7536 38.3934 20.9262 38.0504C23.1561 37.6502 25.3859 37.5644 27.6157 37.7931C29.9028 37.9646 32.0468 38.4506 34.048 39.2511C36.1063 39.9944 37.8502 41.0235 39.2795 42.3386C40.1944 43.139 41.1377 44.2539 42.1097 45.6833C43.1389 47.1127 43.8822 48.5707 44.3396 50.0572C44.797 51.5438 44.797 52.9446 44.3396 54.2596C43.9393 55.5175 42.7958 56.3751 40.909 56.8325C40.1086 57.0612 39.3939 57.1184 38.765 57.0041C38.136 56.8325 37.5643 56.5752 37.0497 56.2322C36.5351 55.832 36.0491 55.3746 35.5917 54.86C35.1343 54.3454 34.7055 53.8308 34.3053 53.3162C32.9331 51.6582 31.3322 50.5432 29.5025 49.9715C27.6729 49.3425 25.8433 49.1996 24.0137 49.5427C22.2413 49.8285 20.5546 50.5718 18.9537 51.7725C17.4099 52.916 16.2092 54.4026 15.3516 56.2322C14.4368 58.1762 13.6935 60.3202 13.1218 62.6644C12.6072 64.9514 12.3213 67.2956 12.2641 69.697C12.207 72.0412 12.4071 74.3282 12.8645 76.5581C13.3791 78.7879 14.2367 80.7605 15.4374 82.4757C16.3522 83.8479 17.4671 84.9629 18.7821 85.8205C20.1544 86.6781 21.6123 87.2785 23.1561 87.6215C24.6998 87.9646 26.2435 88.0217 27.7873 87.793C29.3882 87.5643 30.9319 87.0498 32.4185 86.2493C32.8759 86.0206 33.3619 85.7061 33.8765 85.3059C34.4482 84.8485 35.02 84.3911 35.5917 83.9337C36.1635 83.4763 36.7352 83.0475 37.307 82.6472C37.9359 82.247 38.5934 81.9611 39.2795 81.7896C40.3087 81.4466 41.4236 81.4752 42.6243 81.8754C43.8822 82.2756 44.8256 83.1047 45.4545 84.3625Z" fill="#FF0000"/>
<path d="M98.2987 78.3591C98.2987 80.0744 98.2129 81.8182 98.0414 83.5906C97.8699 85.3059 97.5268 86.9926 97.0122 88.6507C96.4977 90.2516 95.7258 91.7953 94.6966 93.2819C93.6675 94.7113 92.2667 95.9691 90.4942 97.0555C89.6366 97.6272 88.6074 98.1132 87.4068 98.5134C86.2633 98.8565 85.034 99.1424 83.7189 99.3711C82.4611 99.657 81.2032 99.8285 79.9454 99.8857C78.6875 100 77.5154 100.029 76.4291 99.9714C71.2833 99.7999 67.1095 98.5706 63.9076 96.2836C60.763 93.9394 58.333 91.052 56.6178 87.6215C54.9597 84.191 53.8734 80.4746 53.3588 76.4723C52.9014 72.4128 52.8156 68.5535 53.1015 64.8943C53.273 62.7216 53.6446 60.3774 54.2164 57.8617C54.8453 55.346 55.7316 52.916 56.8751 50.5718C58.0757 48.2276 59.5337 46.1121 61.249 44.2253C63.0214 42.3386 65.1083 40.9092 67.5097 39.9372C69.7395 39.0224 72.1695 38.4506 74.7996 38.2219C77.4868 37.936 80.1169 38.0218 82.6898 38.4792C85.3199 38.9366 87.7498 39.7657 89.9797 40.9663C92.2667 42.167 94.0677 43.7679 95.3827 45.7691C96.2975 47.2556 97.0122 49.0567 97.5268 51.1722C98.0414 53.2877 98.1272 55.3174 97.7841 57.2613C97.4982 58.9766 96.8979 60.1773 95.9831 60.8634C95.0683 61.4923 94.0677 61.7496 92.9814 61.6353C91.895 61.4637 90.8373 61.0063 89.8081 60.2631C88.8361 59.4626 88.1786 58.462 87.8356 57.2613C87.4353 55.9463 86.9494 54.7456 86.3776 53.6593C85.8058 52.5158 84.9196 51.5724 83.7189 50.8291C82.3467 49.9715 80.8888 49.4855 79.345 49.3711C77.8585 49.2568 76.4005 49.4283 74.9711 49.8857C73.5989 50.3431 72.2839 51.0578 71.026 52.0298C69.8253 53.0018 68.8247 54.1167 68.0243 55.3746C67.0523 56.8039 66.309 58.3763 65.7944 60.0915C65.2799 61.7496 64.9082 63.4935 64.6795 65.3231C64.4508 67.0955 64.3651 68.8966 64.4222 70.7262C64.5366 72.4986 64.7653 74.2139 65.1083 75.872C65.7373 78.6736 66.7092 81.3036 68.0243 83.7622C68.5389 84.677 69.225 85.506 70.0826 86.2493C70.9974 86.9354 71.998 87.5072 73.0843 87.9646C74.1706 88.3648 75.3141 88.6221 76.5148 88.7364C77.7155 88.8508 78.859 88.765 79.9454 88.4791C81.4891 88.0789 82.747 87.5643 83.7189 86.9354C84.6909 86.2493 85.4628 85.4488 86.0345 84.534C86.6063 83.6192 86.9779 82.6187 87.1495 81.5323C87.3782 80.446 87.4925 79.3025 87.4925 78.1018V78.016C86.7492 78.016 86.0917 78.016 85.52 78.016C84.9482 77.9589 84.5194 77.9303 84.2335 77.9303C82.9757 77.9303 81.7464 77.7016 80.5457 77.2442C79.5165 76.9011 78.7447 76.358 78.2301 75.6147C77.6583 74.9857 77.3725 74.2139 77.3725 73.2991C77.3725 72.956 77.3725 72.6415 77.3725 72.3557C77.4296 72.0126 77.4868 71.6696 77.544 71.3265C77.7155 70.8691 78.0872 70.2974 78.6589 69.6113C79.002 69.3254 79.5451 69.0967 80.2884 68.9251C80.6315 68.8108 80.9745 68.725 81.3176 68.6678C81.6606 68.5535 82.0609 68.4677 82.5183 68.4106C82.8613 68.3534 83.233 68.3248 83.6332 68.3248C84.0334 68.3248 84.4336 68.3248 84.8339 68.3248H92.6383C93.2672 68.2676 93.9819 68.3534 94.7824 68.5821C95.64 68.7536 96.2975 69.0395 96.7549 69.4397C96.9265 69.6684 97.098 69.8971 97.2695 70.1258C97.4411 70.3545 97.584 70.6118 97.6983 70.8977C97.927 71.5266 98.07 72.1556 98.1272 72.7845C98.1843 73.1275 98.2129 73.4992 98.2129 73.8994C98.2701 74.2425 98.2987 74.5569 98.2987 74.8428V78.3591Z" fill="#FF0000"/>
<path d="M155.878 42.167C156.164 43.4821 156.192 44.8257 155.964 46.1979C155.792 47.5129 155.535 48.7136 155.192 49.7999C154.506 52.0298 153.705 54.5169 152.79 57.2613C151.876 60.0058 150.961 62.7502 150.046 65.4946C149.131 68.239 148.245 70.8405 147.387 73.2991C146.53 75.7004 145.815 77.7016 145.243 79.3025C144.672 80.789 144.071 82.4757 143.442 84.3625C142.813 86.2493 142.041 88.1075 141.127 89.9371C140.269 91.7096 139.24 93.3391 138.039 94.8256C136.896 96.3122 135.495 97.3985 133.837 98.0846C132.179 98.7707 130.664 98.9423 129.291 98.5992C127.919 98.199 126.69 97.5129 125.604 96.5409C124.517 95.5117 123.517 94.2539 122.602 92.7673C121.744 91.2236 120.972 89.6512 120.286 88.0503C119.6 86.4494 118.971 84.9057 118.399 83.4191C117.828 81.8754 117.313 80.5603 116.856 79.474C115.083 75.5861 113.482 71.4695 112.053 67.1241C110.624 62.7788 109.166 58.6336 107.679 54.6885C107.279 53.5449 106.821 52.1727 106.307 50.5718C105.792 48.9137 105.449 47.2842 105.278 45.6833C105.163 44.0252 105.363 42.5387 105.878 41.2236C106.393 39.8514 107.479 38.908 109.137 38.3934C109.48 38.2791 109.823 38.1933 110.166 38.1362C110.566 38.0218 110.938 37.936 111.281 37.8789C111.681 37.8789 112.053 37.9075 112.396 37.9646C112.739 38.0218 113.111 38.1647 113.511 38.3934C113.797 38.5078 114.083 38.6507 114.369 38.8223C114.654 38.9366 114.912 39.1081 115.14 39.3368C115.369 39.6227 115.569 39.9086 115.741 40.1945C115.969 40.4803 116.198 40.7662 116.427 41.0521C116.598 41.4523 116.741 41.824 116.856 42.167C117.027 42.4529 117.17 42.7388 117.285 43.0247C117.399 43.4249 117.542 43.7965 117.713 44.1396C117.885 44.4255 118.028 44.7113 118.142 44.9972L118.657 46.4552L131.007 81.7039L143.185 46.5409L143.785 45.083C143.9 44.7971 144.014 44.5112 144.128 44.2253C144.243 43.8823 144.357 43.5106 144.471 43.1104C144.586 42.8245 144.7 42.5387 144.814 42.2528C144.986 41.9097 145.186 41.5667 145.415 41.2236C145.586 40.9378 145.758 40.6519 145.929 40.366C146.158 40.0229 146.387 39.7085 146.616 39.4226C146.787 39.1939 146.987 38.9938 147.216 38.8223C147.502 38.6507 147.759 38.5078 147.988 38.3934C148.445 38.1647 148.845 38.0218 149.188 37.9646C149.589 37.9075 149.932 37.8789 150.218 37.8789C150.561 37.936 150.904 38.0218 151.247 38.1362C151.647 38.1933 152.019 38.2791 152.362 38.3934C153.448 38.6793 154.248 39.1653 154.763 39.8514C155.335 40.5375 155.706 41.3094 155.878 42.167Z" fill="#FF0000"/>
<path d="M152.168 21.7409C152.348 21.4958 152.565 21.3736 152.82 21.3745C153.059 21.3695 153.294 21.4269 153.524 21.5465C153.989 21.8238 154.197 22.2088 154.147 22.7013C154.118 22.9827 154.054 23.2605 153.955 23.5348C153.862 23.793 153.774 24.0621 153.691 24.3422L159.281 26.3601C159.669 26.4999 160.055 26.6668 160.441 26.8608C160.586 26.9132 160.725 27.0089 160.857 27.1478C160.926 27.2092 160.966 27.2508 160.976 27.2728C161.008 27.2844 161.051 27.318 161.104 27.3736C161.246 27.5345 161.345 27.716 161.4 27.9181C161.465 28.3429 161.377 28.7395 161.134 29.1079C160.999 29.3324 160.851 29.4888 160.691 29.5772C160.526 29.6816 160.351 29.737 160.166 29.7432C160.074 29.7464 159.985 29.7415 159.898 29.7285C159.812 29.7155 159.722 29.7106 159.63 29.7137C159.544 29.7008 159.465 29.6907 159.395 29.6835C159.314 29.6544 159.25 29.6311 159.201 29.6136L157.797 29.107C156.959 28.8041 156.087 28.4896 155.184 28.1635C154.286 27.8212 153.418 27.4987 152.579 27.1958C152.429 27.5611 152.281 27.9454 152.135 28.3487C151.979 28.7301 151.781 28.9775 151.539 29.0909C151.407 29.1528 151.263 29.1736 151.106 29.1535C150.933 29.1275 150.766 29.0854 150.605 29.0272C150.449 28.9528 150.316 28.8681 150.204 28.7731C150.076 28.6723 149.995 28.5699 149.959 28.4659C149.842 28.1863 149.804 27.9629 149.846 27.7958C149.878 27.6067 149.932 27.3801 150.009 27.1161C150.021 27.0839 150.059 26.979 150.123 26.8015C150.176 26.6021 150.212 26.4782 150.229 26.4298C149.687 26.2157 149.144 26.0015 148.601 25.7874C148.059 25.5732 147.576 25.3443 147.153 25.1005C146.72 24.8349 146.366 24.5521 146.092 24.2523C145.807 23.9306 145.645 23.5441 145.608 23.0928C145.567 22.5493 145.63 21.9703 145.797 21.3558C145.964 20.7414 146.232 20.2272 146.6 19.813C146.762 19.6163 147.002 19.4567 147.32 19.3343C147.643 19.1958 147.948 19.187 148.232 19.308C148.517 19.429 148.763 19.5815 148.97 19.7657C149.177 19.9498 149.262 20.2178 149.226 20.5696C149.206 20.7265 149.167 20.8856 149.109 21.0469C149.04 21.1863 148.977 21.3366 148.919 21.498C148.86 21.6593 148.829 21.8213 148.825 21.984C148.811 22.1247 148.843 22.2638 148.921 22.4014C148.989 22.517 149.097 22.6201 149.247 22.7106C149.402 22.785 149.566 22.8622 149.738 22.9424C149.909 23.0226 150.084 23.0948 150.261 23.1588C150.428 23.2009 150.569 23.2424 150.681 23.2831L151.286 23.5015C151.453 23.1421 151.599 22.812 151.726 22.5113C151.859 22.1945 152.006 21.9377 152.168 21.7409Z" fill="#FF0000"/>
<path d="M156.799 15.292C157.016 14.7594 157.304 14.2679 157.662 13.8176C158.009 13.3543 158.411 12.9677 158.869 12.6577C159.329 12.3234 159.832 12.0771 160.377 11.9188C160.911 11.7475 161.487 11.6762 162.105 11.705C162.734 11.7467 163.314 11.8884 163.845 12.1302C164.376 12.372 164.895 12.7042 165.402 13.1267C165.748 13.417 166.103 13.6532 166.467 13.8354C166.832 14.0176 167.203 14.1941 167.581 14.365C167.972 14.5245 168.349 14.6954 168.714 14.8776C169.092 15.0485 169.455 15.2548 169.803 15.4967C170.128 15.737 170.356 16.0499 170.489 16.4355C170.623 16.7969 170.551 17.1568 170.272 17.5151C170.112 17.7233 169.913 17.8743 169.676 17.968C169.441 18.0375 169.195 18.0698 168.941 18.0651C168.674 18.0475 168.415 18.0121 168.164 17.959C167.913 17.8816 167.681 17.8115 167.466 17.7487C167.509 18.3957 167.452 18.9815 167.295 19.506C167.128 20.0176 166.827 20.5203 166.393 21.0143C166.025 21.4275 165.643 21.7851 165.246 22.087C164.85 22.3889 164.387 22.6683 163.86 22.9251C163.181 23.2691 162.508 23.4251 161.842 23.3931C161.177 23.3369 160.544 23.1613 159.944 22.8663C159.345 22.5471 158.802 22.1222 158.314 21.5915C157.827 21.0609 157.422 20.4689 157.101 19.8155C156.671 18.9605 156.445 18.1554 156.422 17.4003C156.399 16.6451 156.525 15.9424 156.799 15.292ZM159.266 17.1328C159.243 17.4716 159.288 17.8088 159.399 18.1444C159.511 18.48 159.672 18.7946 159.884 19.0881C160.108 19.3704 160.371 19.6188 160.673 19.8333C160.975 20.0477 161.287 20.1961 161.61 20.2782C161.897 20.3458 162.252 20.3086 162.675 20.1664C163.087 20.0113 163.471 19.7997 163.829 19.5317C164.239 19.2185 164.484 18.8215 164.565 18.3406C164.658 17.8484 164.623 17.3659 164.46 16.8932C164.298 16.3963 164.036 15.9535 163.673 15.5648C163.298 15.1632 162.861 14.885 162.36 14.7304C161.991 14.6208 161.626 14.621 161.266 14.7309C160.92 14.8294 160.604 15.003 160.32 15.2517C160.025 15.4874 159.781 15.7812 159.587 16.133C159.395 16.4606 159.288 16.7939 159.266 17.1328Z" fill="#FF9900"/>
<path d="M178.062 12.8337C178.375 13.2805 178.603 13.6101 178.744 13.8224C178.905 14.0203 179.013 14.1669 179.068 14.262C179.14 14.3597 179.191 14.4196 179.222 14.4417C179.254 14.4638 179.305 14.5237 179.377 14.6214C179.449 14.7191 179.564 14.8754 179.722 15.0903C179.883 15.2882 180.12 15.6106 180.434 16.0574C180.693 16.4091 180.885 16.8026 181.009 17.2379C181.153 17.6589 181.072 18.0803 180.765 18.502C180.593 18.7188 180.415 18.8651 180.23 18.9411C180.047 19.0001 179.855 19.0056 179.654 18.9577C179.471 18.9124 179.276 18.822 179.071 18.6868C178.883 18.5541 178.699 18.3959 178.519 18.2123C178.173 17.8647 177.85 17.4773 177.55 17.0501C177.254 16.6059 177.01 16.2652 176.821 16.0282C176.692 15.8524 176.614 15.7364 176.588 15.6804C176.559 15.6413 176.529 15.6107 176.498 15.5886C176.469 15.5495 176.44 15.5105 176.411 15.4714C176.311 15.3346 176.201 15.1966 176.084 15.0572C175.966 14.9179 175.85 14.7701 175.735 14.6138L175.584 15.6058C175.556 15.7923 175.543 15.9293 175.548 16.0166C175.522 16.1862 175.494 16.3121 175.464 16.3943C175.385 16.5731 175.332 16.7473 175.306 16.9169C175.277 16.9991 175.247 17.0813 175.217 17.1635C175.19 17.2287 175.153 17.3012 175.106 17.3808C175.084 17.4121 175.063 17.435 175.043 17.4494C175.041 17.4663 175.037 17.4918 175.032 17.5257C175.01 17.557 174.989 17.5799 174.969 17.5942C174.967 17.6112 174.954 17.6354 174.932 17.6667C174.822 17.8234 174.661 17.9638 174.452 18.0881C174.101 18.2256 173.695 18.2158 173.233 18.0588C172.986 17.9692 172.805 17.8463 172.69 17.69C172.553 17.565 172.473 17.4054 172.451 17.2111C172.43 17.1212 172.409 17.0312 172.388 16.9413C172.386 16.837 172.375 16.7398 172.354 16.6499C172.333 16.5599 172.328 16.481 172.338 16.4132C172.351 16.3284 172.361 16.2606 172.369 16.2097L174.571 1.73649C174.587 1.63475 174.602 1.533 174.618 1.43126C174.633 1.32951 174.657 1.22906 174.689 1.12989C174.722 1.03073 174.753 0.940041 174.783 0.857834C174.832 0.761248 174.88 0.673141 174.927 0.593513C175.021 0.434258 175.126 0.311498 175.243 0.225233C175.341 0.153345 175.435 0.106893 175.525 0.0858767C175.634 0.0504843 175.734 0.0222801 175.824 0.00126412C175.911 -0.00279358 176.006 0.00291732 176.108 0.0183968C176.229 0.0194989 176.34 0.0277897 176.442 0.0432693C176.68 0.0793881 176.907 0.183337 177.124 0.355115C177.321 0.541271 177.452 0.760792 177.518 1.01368C177.604 1.35651 177.625 1.68054 177.578 1.98578C177.569 2.15793 177.546 2.42335 177.509 2.78204C177.474 3.12377 177.444 3.37942 177.418 3.549L177.403 3.65074C177.335 4.21292 177.262 4.74837 177.184 5.2571C177.107 5.76582 177.023 6.31694 176.933 6.91046C176.826 7.50139 176.731 8.06818 176.648 8.61082C176.568 9.1365 176.488 9.66218 176.408 10.1879L176.366 10.4677C176.522 10.3526 176.677 10.2461 176.831 10.148C176.984 10.05 177.131 9.94214 177.27 9.82454C177.346 9.78399 177.423 9.73496 177.501 9.67745L177.823 9.44022C178.077 9.25331 178.411 9.00041 178.824 8.68152C179.239 8.34568 179.664 8.06329 180.098 7.83435C180.568 7.59361 181.003 7.46899 181.404 7.4605C181.821 7.45459 182.129 7.70968 182.328 8.22577C182.496 8.71974 182.447 9.15473 182.182 9.53076C181.936 9.8924 181.635 10.2196 181.278 10.5123C180.845 10.8456 180.522 11.0913 180.307 11.2494C180.094 11.3906 179.939 11.4972 179.842 11.569C179.747 11.624 179.681 11.6573 179.644 11.6691C179.608 11.6809 179.541 11.7228 179.443 11.7947C179.365 11.8522 179.218 11.96 179.003 12.1182C178.808 12.2619 178.494 12.5005 178.062 12.8337Z" fill="#FF0000"/>
<path d="M188.64 21.8901C188.827 21.9899 189.003 22.1025 189.167 22.2278C189.344 22.3647 189.473 22.5161 189.554 22.682C189.648 22.8594 189.682 23.052 189.656 23.2598C189.642 23.4548 189.537 23.6605 189.341 23.8768C189.203 24.0294 189.033 24.1412 188.83 24.2122C188.627 24.2831 188.417 24.3241 188.199 24.335C187.981 24.346 187.761 24.3327 187.541 24.2953C187.332 24.2451 187.141 24.1879 186.967 24.1237C186.449 23.9555 185.908 23.6974 185.344 23.3493C184.792 23.0127 184.274 22.6016 183.788 22.116C183.124 21.4694 182.583 20.7376 182.165 19.9207C181.772 19.1025 181.656 18.2461 181.818 17.3515C181.993 16.4926 182.359 15.6908 182.917 14.9463C183.475 14.2017 184.093 13.5816 184.772 13.0859C185.58 12.4745 186.356 12.0894 187.101 11.9304C187.87 11.7703 188.616 11.7631 189.34 11.9088C190.212 12.0957 191.01 12.5049 191.734 13.1363C192.458 13.7678 193.012 14.5232 193.396 15.4026C193.656 15.9845 193.808 16.5962 193.853 17.2376C193.909 17.8663 193.819 18.4902 193.583 19.1093C193.53 19.2698 193.442 19.4443 193.317 19.6327C193.206 19.8326 193.07 20.0337 192.911 20.2361C192.762 20.4257 192.601 20.6038 192.427 20.7704C192.254 20.937 192.078 21.0673 191.901 21.1613C191.617 21.3213 191.361 21.4131 191.131 21.4368C190.902 21.4605 190.669 21.4236 190.433 21.3262C190.198 21.2287 189.941 21.0777 189.664 20.8731C189.411 20.6672 189.106 20.4154 188.751 20.1175C188.435 19.8541 188.143 19.6016 187.875 19.3601C187.608 19.1185 187.335 18.8712 187.055 18.6181C186.786 18.3523 186.499 18.0813 186.194 17.8052C185.913 17.5279 185.594 17.2161 185.236 16.8698C184.968 17.0897 184.798 17.3411 184.728 17.624C184.681 17.9057 184.696 18.1964 184.772 18.4962C184.859 18.7832 184.995 19.0679 185.179 19.35C185.363 19.6322 185.564 19.8832 185.781 20.103C186.191 20.5196 186.633 20.8617 187.108 21.1292C187.595 21.384 188.105 21.6377 188.64 21.8901ZM191.167 17.4456C191.179 16.9472 191.108 16.5135 190.956 16.1447C190.833 15.8716 190.651 15.6379 190.411 15.4435C190.194 15.2479 189.956 15.0899 189.695 14.9695C189.245 14.725 188.761 14.634 188.242 14.6965C188.193 14.6989 188.091 14.7223 187.936 14.7666C187.791 14.7981 187.642 14.836 187.486 14.8803C187.343 14.936 187.219 14.997 187.113 15.063C187.007 15.1291 186.979 15.1851 187.03 15.2311L190.771 18.6132C190.919 18.4236 191.019 18.2485 191.072 18.088C191.136 17.9148 191.168 17.7006 191.167 17.4456Z" fill="#FF9900"/>
<path d="M197.534 25.2285C199.404 24.926 201.166 26.1969 201.468 28.0672C201.771 29.9375 200.5 31.699 198.63 32.0015L191.857 33.0971C189.986 33.3997 188.225 32.1288 187.922 30.2584C187.62 28.3881 188.891 26.6267 190.761 26.3241L197.534 25.2285Z" fill="#FF0000"/>
<path d="M185.673 51.655C186.496 53.3617 185.779 55.4121 184.073 56.2349C182.366 57.0576 180.315 56.341 179.493 54.6344L177.258 49.999C176.435 48.2924 177.152 46.2419 178.859 45.4192C180.565 44.5964 182.616 45.313 183.439 47.0197L185.673 51.655Z" fill="#FF0000"/>
<path d="M195.606 39.7741C197.269 40.6826 197.88 42.7668 196.972 44.4295C196.063 46.0921 193.979 46.7035 192.316 45.7951L187.801 43.3278C186.138 42.4193 185.527 40.3351 186.435 38.6724C187.343 37.0098 189.428 36.3984 191.09 37.3068L195.606 39.7741Z" fill="#FF9900"/>
<path d="M170.14 56.2383C169.565 58.0434 167.635 59.0403 165.83 58.4648C164.025 57.8894 163.028 55.9596 163.603 54.1544L165.687 47.6178C166.263 45.8127 168.192 44.8158 169.998 45.3912C171.803 45.9667 172.8 47.8965 172.224 49.7016L170.14 56.2383Z" fill="#FF9900"/>
</svg>
